<?xml version="1.0" encoding="utf-8"?>
<!-- Generator: Adobe Illustrator 24.1.2, SVG Export Plug-In . SVG Version: 6.00 Build 0)  -->
<svg version="1.1" id="Layer_1" xmlns="http://www.w3.org/2000/svg" xmlns:xlink="http://www.w3.org/1999/xlink" x="0px" y="0px"
	 viewBox="0 0 192 192" style="enable-background:new 0 0 192 192;" xml:space="preserve">
<g>
	<path d="M82.8,130c2.8-3.1,4.8-6.6,5.7-10.3c2.7,0.6,5.4,0.9,8.2,0.9s5.7-0.3,8.2-0.6c0.7,4,2.4,7.5,5.1,10.5
		C101.4,135.7,91.5,135.5,82.8,130z M64.4,74.2c3.6,1.5,8.1,2.4,13.3,2.4c5.8,0.1,14.4-3.7,14.4-15V57h8.4v4.6
		c0,11.2,8.4,15.1,14.4,15c5.8,0,10.8-1,14.5-3c-4.3,17.5-14.7,29.3-33.2,29.3C81.8,102.9,70,90.6,64.4,74.2z M76.5,23.9
		c19.5,20.5,34.3,19.9,52.7,18.6c0.4,2.7,0.7,5.5,0.9,8.7c-3.4-1.6-7.9-2.5-13.5-2.5H77c-5.4,0-10,0.9-13.5,2.5
		C63.7,40.6,68.5,30.5,76.5,23.9z M175.8,150.8l-44.2-23.6c-7.9-3.9-10.2-8.5-10.9-12.9c18-11.5,25.1-36.5,25.1-61.4
		c0-4.8-0.4-9.3-1.5-13.5c7-3.1,11.7-8.4,13.3-16c-8.7,6.4-15.9,4-20.7-1.2C128.6,9.5,114.4,2.2,96.7,2.2
		c-31.6,0-49.1,25.3-49.1,50.6c0,22.5,8.8,47.4,25.3,59.9c-0.3,4.8-2.2,10-11.1,14.4l-44.3,23.8C9.6,166.7,9.6,192,9.6,192h63.3
		l2.8-46c13.5,8.2,28.1,8.2,41.8,0l2.8,46h63.3C183.7,192,183.7,166.7,175.8,150.8z"/>
	<text transform="matrix(1 0 0 1 -8.7124 233.9717)" style="font-family:'Arial-BoldMT'; font-size:10.5464px;">Created by Wolf Böse</text>
	<text transform="matrix(1 0 0 1 -8.7124 244.5186)" style="font-family:'Arial-BoldMT'; font-size:10.5464px;">from the Noun Project</text>
</g>
</svg>
